HIERARCHY
ROOT Hips
{
	OFFSET 0.00000 0.00000 0.00000
	CHANNELS 6 Xposition Yposition Zposition Zrotation Yrotation Xrotation 
	JOINT LHipJoint
	{
		OFFSET 0 0 0
		CHANNELS 3 Zrotation Yrotation Xrotation
		JOINT LeftUpLeg
		{
			OFFSET 1.34019 -1.87553 0.90315
			CHANNELS 3 Zrotation Yrotation Xrotation
			JOINT LeftLeg
			{
				OFFSET 2.55316 -7.01474 0.00000
				CHANNELS 3 Zrotation Yrotation Xrotation
				JOINT LeftFoot
				{
					OFFSET 2.64657 -7.27139 0.00000
					CHANNELS 3 Zrotation Yrotation Xrotation
					JOINT LeftToeBase
					{
						OFFSET 0.24207 -0.66507 2.14489
						CHANNELS 3 Zrotation Yrotation Xrotation
						End Site
						{
							OFFSET 0.00000 -0.00000 1.12451
						}
					}
				}
			}
		}
	}
	JOINT RHipJoint
	{
		OFFSET 0 0 0
		CHANNELS 3 Zrotation Yrotation Xrotation
		JOINT RightUpLeg
		{
			OFFSET -1.28320 -1.87553 0.90315
			CHANNELS 3 Zrotation Yrotation Xrotation
			JOINT RightLeg
			{
				OFFSET -2.60484 -7.15674 0.00000
				CHANNELS 3 Zrotation Yrotation Xrotation
				JOINT RightFoot
				{
					OFFSET -2.60296 -7.15159 0.00000
					CHANNELS 3 Zrotation Yrotation Xrotation
					JOINT RightToeBase
					{
						OFFSET -0.31082 -0.85398 2.28998
						CHANNELS 3 Zrotation Yrotation Xrotation
						End Site
						{
							OFFSET -0.00000 -0.00000 1.21611
						}
					}
				}
			}
		}
	}
	JOINT LowerBack
	{
		OFFSET 0 0 0
		CHANNELS 3 Zrotation Yrotation Xrotation
		JOINT Spine
		{
			OFFSET -0.00160 2.05581 -0.15156
			CHANNELS 3 Zrotation Yrotation Xrotation
			JOINT Spine1
			{
				OFFSET 0.04594 2.06326 -0.01617
				CHANNELS 3 Zrotation Yrotation Xrotation
				JOINT Neck
				{
					OFFSET 0 0 0
					CHANNELS 3 Zrotation Yrotation Xrotation
					JOINT Neck1
					{
						OFFSET 0.03753 1.73883 0.26751
						CHANNELS 3 Zrotation Yrotation Xrotation
						JOINT Head
						{
							OFFSET -0.09795 1.76129 -0.31794
							CHANNELS 3 Zrotation Yrotation Xrotation
							End Site
							{
								OFFSET -0.03611 1.79987 -0.13846
							}
						}
					}
				}
				JOINT LeftShoulder
				{
					OFFSET 0 0 0
					CHANNELS 3 Zrotation Yrotation Xrotation
					JOINT LeftArm
					{
						OFFSET 3.30667 1.29205 -0.22445
						CHANNELS 3 Zrotation Yrotation Xrotation
						JOINT LeftForeArm
						{
							OFFSET 4.92785 -0.00000 -0.00000
							CHANNELS 3 Zrotation Yrotation Xrotation
							JOINT LeftHand
							{
								OFFSET 3.44052 -0.00000 0.00000
								CHANNELS 3 Zrotation Yrotation Xrotation
								JOINT LeftFingerBase
								{
									OFFSET 0 0 0
									CHANNELS 3 Zrotation Yrotation Xrotation
									JOINT LeftHandIndex1
									{
										OFFSET 0.65433 -0.00000 0.00000
										CHANNELS 3 Zrotation Yrotation Xrotation
										End Site
										{
											OFFSET 0.52753 -0.00000 0.00000
										}
									}
								}
								JOINT LThumb
								{
									OFFSET 0 0 0
									CHANNELS 3 Zrotation Yrotation Xrotation
									End Site
									{
										OFFSET 0.53559 -0.00000 0.53559
									}
								}
							}
						}
					}
				}
				JOINT RightShoulder
				{
					OFFSET 0 0 0
					CHANNELS 3 Zrotation Yrotation Xrotation
					JOINT RightArm
					{
						OFFSET -3.20032 1.49783 -0.27688
						CHANNELS 3 Zrotation Yrotation Xrotation
						JOINT RightForeArm
						{
							OFFSET -5.09181 -0.00000 -0.00000
							CHANNELS 3 Zrotation Yrotation Xrotation
							JOINT RightHand
							{
								OFFSET -3.49865 -0.00000 -0.00000
								CHANNELS 3 Zrotation Yrotation Xrotation
								JOINT RightFingerBase
								{
									OFFSET 0 0 0
									CHANNELS 3 Zrotation Yrotation Xrotation
									JOINT RightHandIndex1
									{
										OFFSET -0.66641 -0.00000 0.00000
										CHANNELS 3 Zrotation Yrotation Xrotation
										End Site
										{
											OFFSET -0.53728 -0.00000 0.00000
										}
									}
								}
								JOINT RThumb
								{
									OFFSET 0 0 0
									CHANNELS 3 Zrotation Yrotation Xrotation
									End Site
									{
										OFFSET -0.54548 -0.00000 0.54548
									}
								}
							}
						}
					}
				}
			}
		}
	}
}
MOTION
Frames: 6
Frame Time: .0083333
0.2771 17.8172 -30.2903 0 0 0 0 0 0 -21 0 0 0 0 0 0 0 0 0 0 0 0 0 0 21 0 0 0 0 0 0 0 0 0 0 0 0 0 0 0 0 0 0 0 0 0 0 -16 0 0 21 0 0 11 0 0 0 -8 0 0 0 0 0 0 0 0 0 0 0 0 0 0 0 0 0 0 0 0 8 0 0 0 0 0 0 0 0 0 0 0 0 0 0 0 0 0
0.2771 17.8172 -30.2903 -0.7691 3.0996 1.6386 0.0000 0.0000 0.0000 -16.7293 -5.1866 -4.0133 2.0406 8.9500 25.6392 0.1900 10.7050 -17.8263 0.2506 -3.2213 -8.8954 0.0000 0.0000 0.0000 19.5453 -0.5401 -9.1852 -3.0522 -10.7791 31.5386 -0.1443 -14.9601 -22.6940 -0.0820 1.8474 -5.0840 -2.2822 0.1583 3.4463 1.9403 0.1648 -1.6225 3.2756 0.1612 -3.6198 7.6011 0.8303 -19.8873 -8.0477 1.0120 25.8090 -4.1587 0.1581 11.8278 -0.0000 0.0000 0.0000 -87.9066 3.9611 31.2439 14.8432 -23.9272 -3.1621 -0.0000 0.0000 -8.1782 11.7025 0.1514 0.0314 -7.1250 0.0000 -0.0000 -11.6731 30.0248 4.3470 -0.0000 0.0000 0.0000 86.8689 -4.9038 6.4014 -12.4607 20.4919 -2.2610 0.0000 -0.0000 -0.7174 -15.1217 -2.9793 0.8047 7.1250 -0.0000 -0.0000 9.3106 -32.9641 2.7772
0.2715 17.8185 -30.2846 -0.6808 3.1063 1.6837 0.0000 0.0000 0.0000 -16.8093 -5.1988 -4.0024 2.0321 8.9326 25.5846 0.1840 10.7314 -17.7845 0.2545 -3.2457 -8.9636 0.0000 0.0000 0.0000 19.4695 -0.5418 -9.2243 -3.0570 -10.7867 31.5638 -0.1540 -14.9416 -22.7641 -0.0814 1.8400 -5.0638 -2.4077 0.1210 3.4311 1.9398 0.1091 -1.6503 3.3497 0.1370 -3.6364 7.4560 0.8287 -19.7389 -7.9476 1.0334 25.6657 -4.0841 0.1670 11.7440 -0.0000 0.0000 0.0000 -87.9010 3.9616 31.2165 14.7710 -23.8262 -3.1329 -0.0000 0.0000 -8.1208 11.7637 -0.0092 -0.0019 -7.1250 0.0000 -0.0000 -11.6065 29.8651 4.3664 -0.0000 0.0000 0.0000 86.8701 -5.0547 6.4227 -12.4218 20.4342 -2.2474 0.0000 -0.0000 -0.7716 -15.1048 -2.7012 0.7288 7.1250 -0.0000 -0.0000 9.2911 -32.6795 2.8359
0.2684 17.8181 -30.2810 -0.6690 3.0088 1.7025 0.0000 0.0000 0.0000 -16.8403 -5.2711 -3.9522 2.0286 8.9255 25.5624 0.1707 10.8845 -17.8069 0.2499 -3.2166 -8.8823 0.0000 0.0000 0.0000 19.4572 -0.4943 -9.2254 -3.0575 -10.7875 31.5665 -0.1654 -14.8668 -22.7757 -0.0774 1.7951 -4.9396 -2.3614 0.1198 3.4908 1.9085 0.1077 -1.6818 3.2915 0.1363 -3.7024 7.3575 0.8145 -19.7284 -7.8384 1.0164 25.7089 -4.0296 0.1641 11.7561 -0.0000 -0.0000 0.0000 -87.8271 3.9937 31.1790 14.8175 -23.8912 -3.1516 -0.0000 0.0000 -8.2516 11.7242 0.4404 0.0914 -7.1250 0.0000 -0.0000 -11.6913 30.3141 4.2714 -0.0000 -0.0000 0.0000 86.9379 -5.2426 6.5365 -12.4852 20.5283 -2.2696 0.0000 -0.0000 -0.9881 -14.9867 -3.0664 0.8204 7.1250 -0.0000 -0.0000 9.4297 -33.0487 2.7940
0.2644 17.8180 -30.2769 -0.6693 2.9220 1.7599 0.0000 0.0000 0.0000 -16.8195 -5.2254 -3.9934 2.0251 8.9181 25.5394 0.1691 10.9013 -17.8080 0.2524 -3.2328 -8.9275 0.0000 0.0000 0.0000 19.4662 -0.4568 -9.2807 -3.0576 -10.7877 31.5671 -0.1737 -14.8176 -22.7918 -0.0771 1.7909 -4.9282 -2.3624 0.1057 3.4551 1.9202 0.0900 -1.7084 3.3053 0.1281 -3.7086 7.4525 0.8723 -19.5858 -7.9355 1.1010 25.6026 -4.0640 0.2004 11.6956 0.0000 -0.0000 0.0000 -87.8311 4.0000 31.0386 14.8042 -23.8727 -3.1463 -0.0000 0.0000 -8.1440 11.7304 0.2382 0.0495 -7.1250 0.0000 -0.0000 -11.6619 30.1120 4.3178 0.0000 -0.0000 0.0000 86.9634 -5.2820 6.4272 -12.4183 20.4290 -2.2462 0.0000 -0.0000 -0.8073 -15.0351 -2.7962 0.7507 7.1250 -0.0000 -0.0000 9.3583 -32.7744 2.8352
0.2605 17.8179 -30.2725 -0.6741 2.8375 1.7962 0.0000 0.0000 0.0000 -16.8062 -5.2208 -3.9972 2.0230 8.9139 25.5262 0.1652 10.9581 -17.8294 0.2513 -3.2258 -8.9080 0.0000 0.0000 0.0000 19.4796 -0.4194 -9.3014 -3.0561 -10.7854 31.5594 -0.1825 -14.7635 -22.8066 -0.0758 1.7756 -4.8858 -2.3534 0.0933 3.4468 1.9272 0.0743 -1.7267 3.3087 0.1206 -3.7217 7.4405 0.8980 -19.5065 -7.9337 1.1450 25.5633 -4.0519 0.2201 11.6689 0.0000 -0.0000 0.0000 -87.8122 4.0045 30.9634 14.8059 -23.8751 -3.1470 -0.0000 0.0000 -8.1490 11.7382 0.2566 0.0533 -7.1250 0.0000 -0.0000 -11.6580 30.1306 4.3111 0.0000 -0.0000 0.0000 86.9871 -5.3673 6.4025 -12.3883 20.3844 -2.2357 0.0000 -0.0000 -0.7410 -15.0636 -2.6676 0.7177 7.1250 -0.0000 -0.0000 9.3202 -32.6439 2.8531
